HIERARCHY
ROOT Hips
{
  OFFSET 0 0 0
  CHANNELS 6 Xposition Yposition Zposition Zrotation Yrotation Xrotation
  JOINT LeftThigh
  {
    OFFSET 8.409438 0 -5.917753
    CHANNELS 3 Zrotation Yrotation Xrotation
    JOINT LeftLeg
    {
      OFFSET 0 0 -42.358652
      CHANNELS 3 Zrotation Yrotation Xrotation
      JOINT LeftFoot
      {
        OFFSET 0 0 -39.357303
        CHANNELS 3 Zrotation Yrotation Xrotation
      }
    }
  }
  JOINT RightThigh
  {
    OFFSET -8.409438 0 -5.917753
    CHANNELS 3 Zrotation Yrotation Xrotation
    JOINT RightLeg
    {
      OFFSET 0 0 -42.358652
      CHANNELS 3 Zrotation Yrotation Xrotation
      JOINT RightFoot
      {
        OFFSET 0 0 -39.357303
        CHANNELS 3 Zrotation Yrotation Xrotation
      }
    }
  }
  JOINT SpineLow
  {
    OFFSET 0 0 4.719101
    CHANNELS 3 Zrotation Yrotation Xrotation
    JOINT SpineMid
    {
      OFFSET 0 0 12.899191
      CHANNELS 3 Zrotation Yrotation Xrotation
      JOINT Chest
      {
        OFFSET 0 0 12.899191
        CHANNELS 3 Zrotation Yrotation Xrotation
        JOINT LeftShoulder
        {
          OFFSET 7.550562 1.41573 9.438202
          CHANNELS 3 Zrotation Yrotation Xrotation
          JOINT LeftArm
          {
            OFFSET 9.155056 0 4.247191
            CHANNELS 3 Zrotation Yrotation Xrotation
            JOINT LeftForearm
            {
              OFFSET 0 0 25.771955
              CHANNELS 3 Zrotation Yrotation Xrotation
              JOINT LeftHand
              {
                OFFSET 0 0 25.197169
                CHANNELS 3 Zrotation Yrotation Xrotation
              }
            }
          }
        }
        JOINT RightShoulder
        {
          OFFSET -7.550562 1.41573 9.438202
          CHANNELS 3 Zrotation Yrotation Xrotation
          JOINT RightArm
          {
            OFFSET -9.155056 0 4.247191
            CHANNELS 3 Zrotation Yrotation Xrotation
            JOINT RightForearm
            {
              OFFSET 0 0 -25.771955
              CHANNELS 3 Zrotation Yrotation Xrotation
              JOINT RightHand
              {
                OFFSET 0 0 -25.197169
                CHANNELS 3 Zrotation Yrotation Xrotation
              }
            }
          }
        }
        JOINT Neck
        {
          OFFSET 0 0 15.101124
          CHANNELS 3 Zrotation Yrotation Xrotation
          JOINT Head
          {
            OFFSET 0 0 11.325843
            CHANNELS 3 Zrotation Yrotation Xrotation
            End Site
            {
              OFFSET 0 0 14.157303
            }
          }
        }
      }
    }
  }
}
MOTION
Frames: 17
Frame Time: 0.0
0.0  93.25843  0.0  -4.856114  -33.571108  -89.774084  17.009739  -19.435082  3.737303  10.646898  0.022961  8.243791  7.2172  1.235142  2.645023  -4.900159  -3.870232  -16.993197  -1.590587  10.202693  10.409431  8.816596  0.885783  0.490448  -2.628764  -1.391738  0.463276  -7.218997  -3.748466  1.417287  -7.218996  -3.748467  1.417287  -19.611156  27.893683  -4.741923  155.76656  78.525243  -150.968585  1.504293  -13.746049  58.793368  87.959157  -3.44631  -7.989027  -12.341462  1.057324  14.779213  52.575195  12.192487  29.447355  -31.514461  13.571881  -115.938441  85.036557  2.28242  -11.207367  17.722123  0.489099  2.860988  13.289575  0.450289  2.133668  
0.0  93.25843  0.0  -4.986379  -33.490802  -89.912036  17.491288  -19.940156  3.149232  10.710883  0.220612  9.700624  6.914109  1.252793  2.579986  -4.561563  -4.09022  -17.10342  -1.298618  10.441966  11.343043  8.872296  1.007097  0.440463  -2.600376  -1.441311  0.46936  -7.143157  -3.883772  1.437768  -7.143157  -3.883772  1.437768  -19.861856  28.040153  -4.668806  156.155768  78.499169  -149.840254  0.875159  -13.173125  58.089841  87.994567  -4.022731  -8.624299  -12.205473  1.083085  15.06566  52.340224  12.692426  28.903857  -31.141648  13.18087  -116.182888  85.068021  2.679067  -10.946393  17.548217  0.568686  3.007422  13.158642  0.513427  2.241406  
0.0  93.25843  0.0  -5.087791  -33.354465  -90.165112  18.061878  -20.516218  2.62941  10.556815  0.341061  11.140617  6.629609  1.302306  2.569372  -4.707325  -4.336953  -17.110806  -0.413343  10.591507  12.413727  8.965442  1.104211  0.459629  -2.577906  -1.493379  0.485692  -7.084236  -4.024669  1.486776  -7.084236  -4.024669  1.486776  -17.84129  29.154971  -3.910133  150.495064  78.857991  -152.796427  0.034372  -12.728707  57.437849  88.0132  -4.590248  -9.018925  -11.914335  1.181726  15.372334  52.234774  13.169229  28.376723  -30.942514  12.737756  -116.553931  84.97285  2.878342  -10.655866  17.418813  0.694443  3.15749  13.060783  0.611477  2.350554  
0.0  93.25843  0.0  -5.138584  -33.095735  -90.47963  18.685153  -21.013782  2.03247  10.331289  0.472989  12.66909  6.273774  1.372266  2.552306  -4.930133  -4.419422  -17.060887  0.070359  10.715751  13.38754  8.985424  1.252718  0.423374  -2.542843  -1.536602  0.513423  -6.991357  -4.140561  1.565115  -6.991357  -4.140561  1.565115  -17.758668  29.510261  -3.575958  149.546604  78.789926  -152.56857  -0.962871  -12.509175  56.836166  87.853651  -5.146683  -9.060334  -11.612766  1.239499  15.631699  52.170889  13.650984  27.872354  -30.907791  12.353276  -116.99778  84.611709  3.003714  -10.440464  17.140913  0.835883  3.197808  12.85151  0.717334  2.377078  
0.0  93.25843  0.0  -5.23793  -32.823656  -90.843567  19.774152  -21.654081  1.567358  9.637034  0.619825  14.007764  5.744823  1.547734  2.439396  -5.257665  -4.426168  -16.934524  0.511577  10.70563  14.406378  8.911949  1.525493  0.26366  -2.510078  -1.589239  0.563174  -6.906594  -4.279864  1.704688  -6.906594  -4.279864  1.704688  -17.725022  29.907062  -3.751132  147.207742  78.415069  -153.829632  -2.001652  -12.486783  56.291957  87.482478  -5.681044  -8.79887  -11.086258  1.305222  15.812632  52.104917  14.136645  27.356902  -31.078587  11.962345  -117.456192  84.002642  3.136937  -10.402133  16.830737  0.992969  3.165972  12.618004  0.832727  2.349176  
0.0  93.25843  0.0  -5.311223  -32.365231  -91.247983  20.621848  -22.313769  0.968514  8.813476  0.926079  15.478026  5.34904  1.626292  2.376818  -5.645661  -4.378955  -16.740688  0.859184  10.781383  15.336829  8.862847  1.744595  0.174904  -2.485735  -1.642448  0.610993  -6.84499  -4.420813  1.839494  -6.84499  -4.420814  1.839494  -17.678364  30.414699  -3.830829  145.766154  77.965054  -154.17918  -3.029776  -12.586057  55.876961  86.925427  -6.15056  -8.388182  -10.417035  1.339667  16.170514  51.934822  14.821002  26.721873  -31.100782  11.620255  -117.899306  83.332783  3.257592  -10.128955  16.491511  1.189474  3.139551  12.362475  0.977732  2.324475  
0.0  93.25843  0.0  -5.351889  -32.117037  -91.78505  21.649948  -22.948815  0.531584  7.549285  1.35195  16.609863  5.354907  1.719571  2.619518  -5.750109  -4.374831  -16.367542  1.276788  10.958916  16.238934  8.732266  1.936721  0.080096  -2.410604  -1.690807  0.663637  -6.644735  -4.549739  1.983447  -6.644735  -4.549739  1.983447  -17.273754  31.151378  -3.583094  145.193692  77.429487  -153.431515  -3.995355  -12.703841  55.635938  86.24606  -6.595035  -8.04183  -9.667682  1.396231  16.572444  51.748827  15.538057  26.100018  -31.170749  11.179359  -118.319254  82.661668  3.457985  -9.889291  16.048996  1.365943  3.153702  12.029518  1.108244  2.331184  
0.0  93.25843  0.0  -5.360498  -31.423869  -92.203382  22.18319  -23.468978  2.88E-4  6.282642  1.85298  17.721768  5.389323  1.695307  2.743334  -6.020773  -4.403153  -16.010488  1.284913  11.2935  16.996466  8.879422  2.078745  -0.010187  -2.344483  -1.726933  0.695266  -6.467369  -4.647354  2.06907  -6.467369  -4.647354  2.06907  -17.014859  31.843795  -3.390402  145.638208  76.631252  -151.732595  -4.897734  -12.676726  55.626835  85.584626  -7.109375  -7.997787  -8.941239  1.328018  17.103093  51.405972  16.413725  25.334224  -31.109591  10.738051  -118.712115  81.942897  3.829163  -9.519018  15.493599  1.536734  3.167807  11.611916  1.233863  2.338517  
0.0  93.25843  0.0  -5.431395  -30.681257  -92.680934  22.428717  -23.919951  -0.331958  5.18719  2.269676  18.668757  5.586855  1.621703  2.962493  -6.193316  -4.460104  -15.605314  0.946565  11.584438  17.791334  8.980923  2.161987  -0.152591  -2.311099  -1.788645  0.749797  -6.382419  -4.811643  2.22204  -6.382419  -4.811643  2.222041  -16.364249  32.772031  -3.263028  147.605293  75.508302  -148.696326  -5.564355  -12.373612  55.969029  85.163074  -7.757699  -8.392456  -7.792048  1.384562  17.796707  50.989312  17.480813  24.387649  -30.89073  10.150294  -119.024672  81.322094  4.396315  -9.157226  15.07705  1.777211  3.217047  11.297906  1.413359  2.370433  
0.0  93.25843  0.0  -5.395502  -29.722115  -93.23269  22.131089  -24.196569  -0.572898  4.580275  2.526624  19.693893  5.70804  1.539695  3.062551  -6.149333  -4.288053  -15.236106  0.563644  11.878475  18.643266  9.172099  2.234129  -0.229467  -2.195052  -1.800921  0.807886  -6.069478  -4.843897  2.373721  -6.069478  -4.843898  2.37372  -16.164102  33.336017  -3.012693  151.627544  74.117225  -143.895118  -6.079553  -11.508363  56.725134  85.150013  -8.548605  -9.142501  -7.174646  1.168383  18.577143  50.609329  18.685109  23.388898  -30.336773  9.31755  -119.340864  80.917992  5.053684  -8.637176  14.296282  1.890178  3.163731  10.711801  1.492671  2.329854  
0.0  93.25843  0.0  -5.304937  -28.607037  -93.823421  21.717445  -24.432237  -0.748531  4.244764  2.637147  20.693012  5.937805  1.58256  3.361503  -6.262699  -3.984215  -14.849239  0.97697  11.877984  19.804512  8.800515  2.333373  -0.391038  -2.059653  -1.807414  0.843268  -5.701695  -4.863635  2.461257  -5.701696  -4.863635  2.461257  -15.944626  33.996967  -2.514492  156.545665  72.3376  -138.485537  -6.394707  -10.243176  57.875402  85.556629  -9.3372  -10.085521  -6.567757  0.964599  19.750834  50.149653  20.1699  22.210999  -29.781992  8.296647  -119.605066  80.324847  5.8332  -8.233621  13.399809  1.968254  3.173961  10.038973  1.546722  2.33839  
0.0  93.25843  0.0  -5.152157  -27.256041  -94.39138  21.152644  -24.559183  -0.83719  4.055901  2.669817  21.532771  5.691804  1.602249  3.356383  -6.719792  -3.531513  -14.441865  0.728329  11.983119  20.583295  8.535629  2.475438  -0.500556  -1.924681  -1.816702  0.848102  -5.332989  -4.893838  2.465414  -5.332989  -4.893838  2.465414  -15.827521  34.752596  -1.970871  161.023505  70.04203  -133.973225  -6.59079  -8.718821  59.435603  86.254471  -10.017056  -11.138569  -6.048506  0.993969  21.012516  49.839622  21.651961  20.961793  -29.175702  7.206702  -119.853094  79.513741  6.660507  -7.689727  12.402176  2.059176  3.234035  9.290046  1.610856  2.384618  
0.0  93.25843  0.0  -4.997334  -25.601556  -94.903426  20.450733  -24.549383  -0.856403  3.765414  2.651631  22.103699  5.603242  1.628506  3.491421  -7.352306  -3.026652  -13.887456  0.186831  12.184209  21.069265  8.367573  2.554543  -0.586034  -1.82767  -1.843606  0.819983  -5.066534  -4.973248  2.383517  -5.066534  -4.973248  2.383517  -15.40429  35.5256  -1.183366  164.645066  67.224416  -130.678805  -6.647169  -6.988412  61.379546  87.017098  -10.659043  -12.361727  -5.314979  1.217737  22.479972  49.482895  23.210998  19.564891  -28.646497  6.173397  -120.100916  78.430797  7.53564  -7.023308  11.392898  2.208861  3.354912  8.531796  1.719958  2.475692  
0.0  93.25843  0.0  -4.829792  -23.608223  -95.404811  19.580274  -24.434237  -0.849158  3.261306  2.667626  22.440292  5.338083  1.643856  3.486351  -8.759125  -2.561605  -13.288574  -0.204504  12.482811  21.324846  8.357994  2.701501  -0.650383  -1.785344  -1.873224  0.775159  -4.948548  -5.059116  2.26003  -4.948548  -5.059116  2.26003  -14.579301  36.28105  -0.162711  167.244633  64.013516  -128.682951  -6.419192  -5.224869  63.465058  87.584461  -11.506214  -13.713976  -4.36005  1.561624  24.198577  49.170365  25.033782  17.908629  -28.384591  4.969851  -120.2474  77.249764  8.394249  -6.649506  10.412749  2.403203  3.494696  7.794976  1.862656  2.580554  
0.0  93.25843  0.0  -4.688828  -21.27385  -95.882299  18.546885  -24.358091  -0.927475  2.529993  2.873645  22.66329  5.195977  1.616745  3.495731  -10.466199  -2.092093  -12.522391  -0.350405  12.752237  21.427025  8.5393  2.890406  -0.704646  -1.781002  -1.897502  0.745114  -4.935366  -5.127843  2.179384  -4.935366  -5.127842  2.179384  -13.541811  36.927053  0.927968  168.674588  60.796022  -127.957972  -6.203147  -3.427585  65.531052  87.882704  -12.567147  -14.911595  -3.273357  1.913762  25.915232  48.953174  27.123393  16.06407  -27.877221  3.889324  -120.514193  76.216212  9.094569  -5.953125  9.398623  2.611643  3.541306  7.03289  2.013831  2.616062  
0.0  93.25843  0.0  -4.570117  -18.65025  -96.31936  17.436751  -24.330324  -1.119052  1.588195  3.203601  22.76875  5.053438  1.600846  3.488676  -12.656706  -1.56527  -11.783123  -0.563883  12.966429  21.346686  8.508299  3.018986  -0.762318  -1.77357  -1.90813  0.738245  -4.914917  -5.15764  2.160843  -4.914917  -5.15764  2.160843  -12.485824  37.453094  1.997653  168.498383  57.98049  -128.843335  -6.429657  -1.661898  67.567537  87.826332  -13.805667  -15.726543  -2.078132  1.938475  27.355548  48.633294  29.459061  14.353945  -27.654956  2.604645  -120.721695  75.390527  9.940669  -5.627822  8.23532  2.784448  3.465409  6.159714  2.135565  2.561547  
0.0  93.25843  0.0  -4.434632  -15.708124  -96.657428  16.203599  -24.292335  -1.438455  0.462956  3.6496  22.716796  4.935604  1.583815  3.533636  -14.911822  -0.867118  -11.149557  -0.977827  13.049305  21.217432  8.880733  3.235207  -0.791966  -1.76081  -1.88737  0.724577  -4.878093  -5.102392  2.120839  -4.878093  -5.102392  2.120839  -11.323558  37.671209  3.109085  166.554227  55.318615  -131.289518  -7.017641  -0.191784  69.504258  87.449317  -15.090619  -16.072068  -0.947251  1.743072  28.738446  48.088286  32.092547  12.578678  -27.707709  1.402354  -121.036574  74.809608  10.760989  -5.438204  6.881397  2.834996  3.339248  5.144678  2.164239  2.472351  
